<svg width="156" height="48" viewBox="0 0 156 48" fill="none" xmlns="http://www.w3.org/2000/svg">
<path d="M8.056 35V33.628H8.476C8.83067 33.628 9.12933 33.572 9.372 33.46C9.61467 33.348 9.83867 33.1427 10.044 32.844C10.2493 32.5453 10.464 32.1067 10.688 31.528L16.82 15.008H20.012L26.06 31.808C26.228 32.2933 26.4053 32.6667 26.592 32.928C26.7973 33.1893 27.0213 33.376 27.264 33.488C27.5253 33.5813 27.8147 33.628 28.132 33.628H28.58V35H19.928V33.628H20.852C21.2253 33.628 21.5427 33.5347 21.804 33.348C22.084 33.1613 22.224 32.8627 22.224 32.452C22.224 32.3213 22.2053 32.1907 22.168 32.06C22.1493 31.9107 22.1213 31.78 22.084 31.668C22.0653 31.5373 22.028 31.416 21.972 31.304L20.964 28.364H13.936L13.04 30.996C12.984 31.1453 12.928 31.304 12.872 31.472C12.8347 31.64 12.7973 31.808 12.76 31.976C12.7413 32.144 12.732 32.2933 12.732 32.424C12.732 32.8347 12.872 33.1427 13.152 33.348C13.432 33.5347 13.7867 33.628 14.216 33.628H15.168V35H8.056ZM14.496 26.796H20.404L18.836 22.064C18.6867 21.5973 18.528 21.112 18.36 20.608C18.2107 20.104 18.0613 19.6093 17.912 19.124C17.7813 18.6387 17.66 18.1813 17.548 17.752C17.4733 18.0507 17.38 18.368 17.268 18.704C17.1747 19.04 17.072 19.3853 16.96 19.74C16.8667 20.0947 16.7547 20.4587 16.624 20.832C16.512 21.1867 16.3907 21.5413 16.26 21.896L14.496 26.796ZM29.2338 35V33.628H29.3458C29.7752 33.628 30.1578 33.5813 30.4938 33.488C30.8298 33.3947 31.0912 33.208 31.2778 32.928C31.4832 32.648 31.5858 32.228 31.5858 31.668V23.212C31.5858 22.6707 31.4925 22.2693 31.3058 22.008C31.1192 21.7467 30.8672 21.5787 30.5498 21.504C30.2512 21.4107 29.8965 21.364 29.4858 21.364H29.3738V19.992H34.7498L35.1138 22.092H35.2538C35.6272 21.3827 36.0285 20.86 36.4578 20.524C36.9058 20.1693 37.3818 19.936 37.8858 19.824C38.4085 19.712 38.9685 19.656 39.5658 19.656C41.0218 19.656 42.1605 20.0853 42.9818 20.944C43.8032 21.8027 44.2138 23.184 44.2138 25.088V31.64C44.2138 32.2187 44.2885 32.648 44.4378 32.928C44.6058 33.208 44.8298 33.3947 45.1098 33.488C45.4085 33.5813 45.7632 33.628 46.1738 33.628H46.2858V35H40.5738V25.62C40.5738 24.4067 40.3778 23.4733 39.9858 22.82C39.6125 22.148 38.9592 21.812 38.0258 21.812C37.3165 21.812 36.7565 22.0173 36.3458 22.428C35.9538 22.8387 35.6645 23.38 35.4778 24.052C35.3098 24.724 35.2258 25.452 35.2258 26.236V31.78C35.2258 32.3213 35.3098 32.7227 35.4778 32.984C35.6645 33.2453 35.9165 33.4227 36.2338 33.516C36.5512 33.5907 36.9152 33.628 37.3258 33.628H37.4378V35H29.2338ZM47.6909 35V33.628H47.8029C48.2322 33.628 48.6149 33.5813 48.9509 33.488C49.2869 33.3947 49.5482 33.208 49.7349 32.928C49.9402 32.648 50.0429 32.228 50.0429 31.668V23.212C50.0429 22.6707 49.9495 22.2693 49.7629 22.008C49.5762 21.7467 49.3242 21.5787 49.0069 21.504C48.7082 21.4107 48.3535 21.364 47.9429 21.364H47.8309V19.992H53.2069L53.5709 22.092H53.7109C54.0842 21.3827 54.4855 20.86 54.9149 20.524C55.3629 20.1693 55.8389 19.936 56.3429 19.824C56.8655 19.712 57.4255 19.656 58.0229 19.656C59.4789 19.656 60.6175 20.0853 61.4389 20.944C62.2602 21.8027 62.6709 23.184 62.6709 25.088V31.64C62.6709 32.2187 62.7455 32.648 62.8949 32.928C63.0629 33.208 63.2869 33.3947 63.5669 33.488C63.8655 33.5813 64.2202 33.628 64.6309 33.628H64.7429V35H59.0309V25.62C59.0309 24.4067 58.8349 23.4733 58.4429 22.82C58.0695 22.148 57.4162 21.812 56.4829 21.812C55.7735 21.812 55.2135 22.0173 54.8029 22.428C54.4109 22.8387 54.1215 23.38 53.9349 24.052C53.7669 24.724 53.6829 25.452 53.6829 26.236V31.78C53.6829 32.3213 53.7669 32.7227 53.9349 32.984C54.1215 33.2453 54.3735 33.4227 54.6909 33.516C55.0082 33.5907 55.3722 33.628 55.7829 33.628H55.8949V35H47.6909ZM73.8479 35.28C71.7012 35.28 70.0026 34.636 68.7519 33.348C67.5199 32.06 66.9039 30.0907 66.9039 27.44C66.9039 24.8267 67.4919 22.876 68.6679 21.588C69.8626 20.3 71.6172 19.656 73.9319 19.656C76.0972 19.656 77.7959 20.3 79.0279 21.588C80.2599 22.876 80.8759 24.8267 80.8759 27.44C80.8759 30.0907 80.2786 32.06 79.0839 33.348C77.9079 34.636 76.1626 35.28 73.8479 35.28ZM73.9039 33.628C74.7066 33.628 75.3412 33.404 75.8079 32.956C76.2932 32.4893 76.6386 31.7893 76.8439 30.856C77.0492 29.9227 77.1519 28.784 77.1519 27.44C77.1519 26.0773 77.0399 24.948 76.8159 24.052C76.6106 23.156 76.2652 22.484 75.7799 22.036C75.3132 21.5693 74.6786 21.336 73.8759 21.336C73.0919 21.336 72.4572 21.5693 71.9719 22.036C71.4866 22.484 71.1412 23.156 70.9359 24.052C70.7306 24.948 70.6279 26.0773 70.6279 27.44C70.6279 28.8027 70.7306 29.9413 70.9359 30.856C71.1599 31.7707 71.5052 32.4613 71.9719 32.928C72.4572 33.3947 73.1012 33.628 73.9039 33.628ZM82.9096 35V33.628H83.0216C83.451 33.628 83.8336 33.5813 84.1696 33.488C84.5056 33.3947 84.767 33.208 84.9536 32.928C85.159 32.648 85.2616 32.228 85.2616 31.668V23.212C85.2616 22.6707 85.1683 22.2693 84.9816 22.008C84.795 21.7467 84.543 21.5787 84.2256 21.504C83.927 21.4107 83.5723 21.364 83.1616 21.364H83.0496V19.992H88.4256L88.7896 22.092H88.9296C89.303 21.3827 89.7043 20.86 90.1336 20.524C90.5816 20.1693 91.0576 19.936 91.5616 19.824C92.0843 19.712 92.6443 19.656 93.2416 19.656C94.6976 19.656 95.8363 20.0853 96.6576 20.944C97.479 21.8027 97.8896 23.184 97.8896 25.088V31.64C97.8896 32.2187 97.9643 32.648 98.1136 32.928C98.2816 33.208 98.5056 33.3947 98.7856 33.488C99.0843 33.5813 99.439 33.628 99.8496 33.628H99.9616V35H94.2496V25.62C94.2496 24.4067 94.0536 23.4733 93.6616 22.82C93.2883 22.148 92.635 21.812 91.7016 21.812C90.9923 21.812 90.4323 22.0173 90.0216 22.428C89.6296 22.8387 89.3403 23.38 89.1536 24.052C88.9856 24.724 88.9016 25.452 88.9016 26.236V31.78C88.9016 32.3213 88.9856 32.7227 89.1536 32.984C89.3403 33.2453 89.5923 33.4227 89.9096 33.516C90.227 33.5907 90.591 33.628 91.0016 33.628H91.1136V35H82.9096ZM108.843 35.28C107.536 35.28 106.379 35.028 105.371 34.524C104.363 34.02 103.569 33.208 102.991 32.088C102.412 30.9493 102.123 29.4373 102.123 27.552C102.123 25.5547 102.412 23.9867 102.991 22.848C103.588 21.6907 104.381 20.8693 105.371 20.384C106.379 19.8987 107.508 19.656 108.759 19.656C109.804 19.656 110.719 19.7773 111.503 20.02C112.305 20.2627 112.931 20.5987 113.379 21.028C113.827 21.4573 114.051 21.9707 114.051 22.568C114.051 22.9787 113.948 23.352 113.743 23.688C113.556 24.0053 113.229 24.2573 112.763 24.444C112.296 24.6307 111.661 24.724 110.859 24.724C110.859 24.0893 110.793 23.5107 110.663 22.988C110.551 22.4653 110.345 22.0453 110.047 21.728C109.767 21.4107 109.356 21.252 108.815 21.252C108.217 21.252 107.685 21.4387 107.219 21.812C106.771 22.1667 106.425 22.8013 106.183 23.716C105.94 24.6307 105.819 25.9 105.819 27.524C105.819 28.812 105.949 29.8853 106.211 30.744C106.472 31.584 106.864 32.2187 107.387 32.648C107.928 33.0773 108.637 33.292 109.515 33.292C110.131 33.292 110.691 33.1987 111.195 33.012C111.717 32.8253 112.165 32.5733 112.539 32.256C112.931 31.92 113.229 31.5467 113.435 31.136C113.621 31.2667 113.761 31.4347 113.855 31.64C113.967 31.8453 114.023 32.0787 114.023 32.34C114.023 32.8067 113.836 33.264 113.463 33.712C113.089 34.16 112.52 34.5333 111.755 34.832C111.008 35.1307 110.037 35.28 108.843 35.28ZM123.477 35.28C121.237 35.28 119.511 34.608 118.297 33.264C117.103 31.9013 116.505 30.0067 116.505 27.58C116.505 24.9667 117.084 22.9973 118.241 21.672C119.417 20.328 121.06 19.656 123.169 19.656C125.129 19.656 126.66 20.2253 127.761 21.364C128.881 22.484 129.441 24.1547 129.441 26.376V27.748H120.201C120.239 29.0547 120.407 30.1187 120.705 30.94C121.023 31.7427 121.461 32.34 122.021 32.732C122.6 33.124 123.3 33.32 124.121 33.32C124.775 33.32 125.353 33.2267 125.857 33.04C126.38 32.8347 126.828 32.5733 127.201 32.256C127.575 31.92 127.873 31.556 128.097 31.164C128.303 31.2573 128.461 31.416 128.573 31.64C128.704 31.8453 128.769 32.088 128.769 32.368C128.769 32.8347 128.573 33.292 128.181 33.74C127.808 34.188 127.229 34.5613 126.445 34.86C125.68 35.14 124.691 35.28 123.477 35.28ZM125.717 26.068C125.717 25.116 125.633 24.2853 125.465 23.576C125.297 22.8667 125.027 22.3253 124.653 21.952C124.299 21.56 123.813 21.364 123.197 21.364C122.6 21.364 122.087 21.5413 121.657 21.896C121.247 22.2507 120.92 22.7827 120.677 23.492C120.453 24.1827 120.313 25.0413 120.257 26.068H125.717ZM121.573 17.668C121.853 17.3133 122.152 16.8933 122.469 16.408C122.805 15.9227 123.123 15.428 123.421 14.924C123.739 14.42 123.991 13.9627 124.177 13.552H128.041V13.832C127.873 14.0747 127.603 14.3827 127.229 14.756C126.856 15.1293 126.427 15.5213 125.941 15.932C125.475 16.3427 124.999 16.7347 124.513 17.108C124.028 17.4627 123.58 17.7707 123.169 18.032H121.573V17.668Z" fill="black"/>
</svg>
